# AST/ASF file generated using VICON BodyLanguage
# -----------------------------------------------
:version 1.10
:name VICON
:units
  mass 1.0
  length 0.45
  angle deg
:documentation
   .ast/.asf automatically generated from VICON data using
   VICON BodyBuilder and BodyLanguage model FoxedUp or BRILLIANT.MOD
:root
   order TX TY TZ RX RY RZ
   axis XYZ
   position 0 0 0  
   orientation 0 0 0 
:bonedata
  begin
     id 1 
     name lhipjoint
     direction 0.650112 -0.723553 0.232005 
     length 2.45805 
     axis 0 0 0  XYZ
  end
  begin
     id 2 
     name lfemur
     direction 0.34202 -0.939693 0  
     length 7.00073  
     axis 0 0 20  XYZ
    dof rx ry rz
    limits (-160.0 20.0)
           (-70.0 70.0)
           (-60.0 70.0)
  end
  begin
     id 3 
     name ltibia
     direction 0.34202 -0.939693 0   
     length 7.8748   
     axis 0 0 20   XYZ
    dof rx
    limits (-10.0 170.0)
  end
  begin
     id 4 
     name lfoot
     direction 0.0542825 -0.14914 0.987325   
     length 1.75978   
     axis -90 7.62852e-016 20   XYZ
    dof rx rz
    limits (-45.0 90.0)
           (-70.0 20.0)
  end
  begin
     id 5 
     name ltoes
     direction 1.53509e-011 -4.21906e-011 1   
     length 0.893912   
     axis -90 7.62852e-016 20   XYZ
    dof rx
    limits (-90.0 20.0)
  end
  begin
     id 6 
     name rhipjoint
     direction -0.637897 -0.733345 0.235145   
     length 2.42522  
     axis 0 0 0  XYZ 
  end
  begin
     id 7 
     name rfemur
     direction -0.34202 -0.939693 0   
     length 7.02549   
     axis 0 0 -20   XYZ
    dof rx ry rz
    limits (-160.0 20.0)
           (-70.0 70.0)
           (-70.0 60.0)
  end
  begin
     id 8 
     name rtibia
     direction -0.34202 -0.939693 0   
     length 7.71512   
     axis 0 0 -20   XYZ
    dof rx
    limits (-10.0 170.0)
 end
 begin
     id 9 
     name rfoot
     direction -0.0822618 -0.226012 0.970645   
     length 1.90014  
     axis -90 -7.62852e-016 -20   XYZ
    dof rx rz
    limits (-45.0 90.0)
           (-20.0 70.0)
  end
  begin
     id 10 
     name rtoes
     direction -1.53542e-011 -4.21872e-011 1   
     length 0.957341   
     axis -90 -7.62852e-016 -20   XYZ
    dof rx
    limits (-90.0 20.0)
  end
  begin
     id 11 
     name lowerback
     direction -0.0022947 0.999774 -0.0211557   
     length 1.89909   
     axis 0 0 0   XYZ
    dof rx ry rz
    limits (-20.0 45.0)
           (-30.0 30.0)
           (-30.0 30.0)
  end
  begin
     id 12 
     name upperback
     direction 0.0107737 0.998635 0.0511027   
     length 1.8853   
     axis 0 0 0   XYZ
    dof rx ry rz
    limits (-20.0 45.0)
           (-30.0 30.0)
           (-30.0 30.0)
  end
  begin
     id 13 
     name thorax
     direction 0.011824 0.998136 0.0598754   
     length 1.88911   
     axis 0 0 0   XYZ
    dof rx ry rz
    limits (-20.0 45.0)
           (-30.0 30.0)
           (-30.0 30.0)
  end
  begin
     id 14 
     name lowerneck
     direction -0.0685355 0.990319 0.120714   
     length 1.91222   
     axis 0 0 0   XYZ
    dof rx ry rz
    limits (-20.0 45.0)
           (-30.0 30.0)
           (-30.0 30.0)
  end
  begin
     id 15 
     name upperneck
     direction 0.0886204 0.955665 -0.280805   
     length 1.92526   
     axis 0 0 0   XYZ
    dof rx ry rz
    limits (-20.0 45.0)
           (-30.0 30.0)
           (-30.0 30.0)
  end
  begin
     id 16
     name head
     direction 0.0233423 0.993502 -0.111393  
     length 1.96056  
     axis 0 0 0   XYZ
    dof rx ry rz
    limits (-20.0 45.0)
           (-30.0 30.0)
           (-30.0 30.0)
  end
  begin
     id 17 
     name lclavicle
     direction 0.941873 0.32922 0.0670041  
     length 3.31705  
     axis 0 0 0   XYZ
    dof ry rz
    limits (-20.0 10.0)
           (0.0 20.0)
  end
  begin
     id 18 
     name lhumerus
     direction 1 -4.4898e-011 3.38707e-028   
     length 5.29277   
     axis 180 -30 -90   XYZ
    dof rx ry rz
    limits (-60.0 90.0)
           (-90.0 90.0)
           (-90.0 90.0)
  end
  begin
     id 19
     name lradius
     direction 1 -4.48952e-011 1.63213e-028   
     length 2.85226   
     axis 180 -30 -90   XYZ
    dof rx
    limits (-10.0 170.0)
  end
  begin
     id 20
     name lwrist
     direction 1 -4.49001e-011 1.27856e-027   
     length 1.42613   
     axis -1.61767e-015 90 90   XYZ
    dof ry
    limits (-180.0 0.0)
 end
  begin
     id 21 
     name lhand
     direction 1 -4.48976e-011 2.55931e-027   
     length 0.602097   
     axis -1.63363e-015 90 90   XYZ
    dof rx rz
    limits (-90.0 90.0)
           (-45.0 45.0)
  end
  begin
     id 22 
     name lfingers
     direction 1 -4.48986e-011 5.11684e-027   
     length 0.485426   
     axis -3.26723e-015 90 90   XYZ
    dof rx
    limits (0.0 90.0)
  end
  begin
     id 23
     name lthumb
     direction 0.707107 -6.34915e-011 0.707107   
     length 0.696978   
     axis -90 45 -2.25915e-014   XYZ
    dof rx rz
    limits (-45.0 45.0)
           (-45.0 45.0)
  end
  begin
     id 24 
     name rclavicle
     direction -0.939974 0.327078 0.0973096   
     length 3.10337  
     axis 0 0 0   XYZ 
    dof ry rz
    limits (-10.0 20.0)
           (-20.0 0.0)
  end
  begin
     id 25 
     name rhumerus
     direction -1 -4.48975e-011 1.83745e-027  
     length 5.13304   
     axis 180 30 90   XYZ
    dof rx ry rz
    limits (-90.0 60.0)
           (-90.0 90.0)
           (-90.0 90.0)
  end
  begin
     id 26 
     name rradius
     direction -1 -4.48977e-011 7.1775e-029   
     length 2.74305   
     axis 180 30 90   XYZ
    dof rx
    limits (-10.0 170.0)
  end
  begin
     id 27 
     name rwrist
     direction -1 -4.48977e-011 1.27963e-027   
     length 1.37152   
     axis -1.61767e-015 -90 -90   XYZ
    dof ry
    limits (-180.0 0.0)
  end
  begin
     id 28
     name rhand
     direction -1 -4.4888e-011 2.56782e-027   
     length 0.767976   
     axis -1.63363e-015 -90 -90   XYZ
    dof rx rz
    limits (-90.0 90.0)
           (-45.0 45.0)
  end
  begin
     id 29
     name rfingers
     direction -1 -4.48947e-011 5.12384e-027   
     length 0.619162   
     axis -3.26723e-015 -90 -90   XYZ
    dof rx
    limits (0.0 90.0)
  end
  begin
     id 30
     name rthumb
     direction -0.707107 -6.34857e-011 0.707107   
     length 0.888997   
     axis -90 -45 2.25915e-014   XYZ
    dof rx rz
    limits (-45.0 45.0)
           (-45.0 45.0)
  end
:hierarchy
  begin
    root lhipjoint rhipjoint lowerback
    lhipjoint lfemur
    lfemur ltibia
    ltibia lfoot
    lfoot ltoes
    rhipjoint rfemur
    rfemur rtibia
    rtibia rfoot
    rfoot rtoes
    lowerback upperback
    upperback thorax
    thorax lowerneck lclavicle rclavicle
    lowerneck upperneck
    upperneck head
    lclavicle lhumerus
    lhumerus lradius
    lradius lwrist
    lwrist lhand lthumb
    lhand lfingers
    rclavicle rhumerus
    rhumerus rradius
    rradius rwrist
    rwrist rhand rthumb
    rhand rfingers
  end

#!OML:ASF F:\VICON\USERDATA\INSTALL\rory3\rory3.ASF
:FULLY-SPECIFIED
:DEGREES
101
root 0.235945 17.4151 0.356433 3.94255 0.983051 -2.1287
lowerback -3.61159 -0.796897 -0.336257
upperback -3.16352 -1.04974 0.618211
thorax -1.20274 -0.51283 0.795764
lowerneck -13.1306 -14.8391 -18.6359
upperneck 30.238 -22.4876 14.6888
head 17.3318 -10.0778 4.6577
rclavicle -9.50439e-015 1.59028e-015
rhumerus -39.302 20.9924 -97.8253
rradius 32.7982
rwrist 7.66319
rhand 2.69571 11.4482
rfingers 7.12502
rthumb 28.1698 -16.4553
lclavicle -9.50439e-015 1.59028e-015
lhumerus -26.3547 10.3421 86.5565
lradius 7.56364
lwrist -42.7679
lhand -4.06613 24.9039
lfingers 7.12502
lthumb 21.6905 53.7088
rfemur 0 0 0
rtibia 0
rfoot 0 0
rtoes 0
lfemur -3.01488 -19.2701 -17.4323
ltibia 16.2207
lfoot -16.7537 15.811
ltoes -16.0477
102
root 0.234951 17.4139 0.362578 3.95363 0.944654 -2.02734
lowerback -3.62417 -0.755429 -0.392149
upperback -3.13772 -0.993658 0.54465
thorax -1.17044 -0.484711 0.752681
lowerneck -13.3519 -14.8039 -18.4797
upperneck 30.2665 -22.4419 14.6934
head 17.3638 -10.0266 4.63708
rclavicle 7.77745e-015 4.37326e-015
rhumerus -39.7832 21.4116 -98.3643
rradius 32.736
rwrist 7.43036
rhand 2.38357 11.6163
rfingers 7.12502
rthumb 27.8714 -16.336
lclavicle 7.77745e-015 4.37326e-015
lhumerus -26.4734 10.2586 86.3744
lradius 7.02821
lwrist -42.9602
lhand -4.36436 24.9859
lfingers 7.12502
lthumb 21.404 53.8236
rfemur 0 0 0
rtibia 0
rfoot 0 0
rtoes 0
lfemur -2.98375 -19.2964 -17.5614
ltibia 16.2343
lfoot -16.7667 15.8424
ltoes -15.9384
103
root 0.23318 17.4143 0.367176 3.97859 0.916701 -1.94871
lowerback -3.65673 -0.722797 -0.44467
upperback -3.08501 -0.949194 0.495554
thorax -1.09876 -0.462435 0.732014
lowerneck -13.5824 -14.7326 -18.3132
upperneck 30.2162 -22.33 14.7212
head 17.3436 -9.94571 4.64047
rclavicle 1.10201e-014 -1.59028e-015
rhumerus -40.1083 21.6318 -98.7166
rradius 32.6618
rwrist 7.40369
rhand 2.44441 11.7252
rfingers 7.12502
rthumb 27.9295 -16.2176
lclavicle 1.10201e-014 -1.59028e-015
lhumerus -26.6735 10.2136 86.2134
lradius 6.85958
lwrist -42.9848
lhand -3.85983 25.737
lfingers 7.12502
lthumb 21.8886 54.5189
rfemur 0 0 0
rtibia 0
rfoot 0 0
rtoes 0
lfemur -2.98531 -19.2948 -17.6466
ltibia 16.225
lfoot -16.6983 15.8626
ltoes -16.0004
104
root 0.231916 17.4145 0.371009 4.00832 0.917027 -1.98067
lowerback -3.6011 -0.710751 -0.373745
upperback -3.11455 -0.935016 0.487055
thorax -1.16164 -0.456358 0.684963
lowerneck -13.8833 -14.6326 -18.1604
upperneck 30.3792 -22.1732 14.6643
head 17.428 -9.84978 4.62489
rclavicle -1.28962e-014 -2.98177e-015
rhumerus -40.6263 21.9486 -99.1512
rradius 32.7519
rwrist 7.06366
rhand 2.75748 11.6273
rfingers 7.12502
rthumb 28.2288 -16.2665
lclavicle -1.28962e-014 -2.98177e-015
lhumerus -27.0919 10.2253 86.0469
lradius 6.91547
lwrist -42.8892
lhand -3.74466 26.5133
lfingers 7.12502
lthumb 21.9991 55.2822
rfemur 0 0 0
rtibia 0
rfoot 0 0
rtoes 0
lfemur -3.00758 -19.3029 -17.5977
ltibia 16.2226
lfoot -16.7173 15.8463
ltoes -15.8506
105
root 0.230412 17.4145 0.3748 4.0273 0.91248 -2.05224
lowerback -3.45092 -0.694162 -0.285357
upperback -3.22641 -0.914845 0.498656
thorax -1.36199 -0.4469 0.650826
lowerneck -14.0467 -14.534 -18.0444
upperneck 30.5268 -22.0201 14.5813
head 17.4734 -9.77185 4.60994
rclavicle 1.89218e-014 6.16232e-015
rhumerus -41.2777 22.1133 -99.6174
rradius 32.7686
rwrist 6.65215
rhand 2.58447 11.6382
rfingers 7.12502
rthumb 28.0634 -16.2828
lclavicle 1.89218e-014 6.16232e-015
lhumerus -27.6418 10.2124 85.8413
lradius 6.95911
lwrist -42.5932
lhand -4.21405 26.6999
lfingers 7.12502
lthumb 21.5484 55.5211
rfemur 0 0 0
rtibia 0
rfoot 0 0
rtoes 0
lfemur -3.0299 -19.321 -17.5088
ltibia 16.2421
lfoot -16.7473 15.864
ltoes -15.7266
106
root 0.230293 17.4137 0.379115 4.05663 0.903657 -2.13294
lowerback -3.41159 -0.685566 -0.170549
upperback -3.25253 -0.905654 0.51416
thorax -1.41244 -0.444122 0.603361
lowerneck -14.2724 -14.4419 -17.9218
upperneck 30.5478 -21.874 14.5841
head 17.4848 -9.68437 4.62154
rclavicle -9.25591e-015 2.98177e-015
rhumerus -41.7057 22.1537 -99.9417
rradius 32.7191
rwrist 6.35511
rhand 2.4621 11.6393
rfingers 7.12502
rthumb 27.9464 -16.3007
lclavicle -9.25591e-015 2.98177e-015
lhumerus -28.0282 10.2225 85.6156
lradius 6.91729
lwrist -42.2267
lhand -4.65936 26.8603
lfingers 7.12502
lthumb 21.1207 55.7299
rfemur 0 0 0
rtibia 0
rfoot 0 0
rtoes 0
lfemur -3.05167 -19.2926 -17.4134
ltibia 16.2619
lfoot -16.7615 15.8487
ltoes -15.7485
107
root 0.230332 17.414 0.38344 4.09714 0.839119 -2.09821
lowerback -3.44971 -0.66642 -0.177293
upperback -3.20437 -0.880181 0.51459
thorax -1.34179 -0.431496 0.607223
lowerneck -14.6393 -14.3546 -17.759
upperneck 30.5472 -21.697 14.5409
head 17.4958 -9.57542 4.60514
rclavicle 3.61043e-014 4.17448e-015
rhumerus -41.9261 22.1818 -100.097
rradius 32.6766
rwrist 6.09131
rhand 2.61435 11.5571
rfingers 7.12502
rthumb 28.092 -16.3591
lclavicle 3.61043e-014 4.17448e-015
lhumerus -28.2794 10.2628 85.4299
lradius 6.87681
lwrist -41.7033
lhand -5.03119 26.7999
lfingers 7.12502
lthumb 20.7634 55.709
rfemur 0 0 0
rtibia 0
rfoot 0 0
rtoes 0
lfemur -3.06874 -19.298 -17.4554
ltibia 16.2712
lfoot -16.7696 15.8565
ltoes -15.3546
108
root 0.23029 17.414 0.388579 4.09564 0.75069 -2.03241
lowerback -3.40977 -0.627388 -0.217392
upperback -3.16011 -0.827476 0.510903
thorax -1.31871 -0.404573 0.627214
lowerneck -15.0511 -14.288 -17.6056
upperneck 30.5733 -21.5347 14.4618
head 17.53 -9.47397 4.56801
rclavicle -1.56419e-014 -5.36719e-015
rhumerus -42.1369 22.16 -100.203
rradius 32.6468
rwrist 5.66622
rhand 2.6283 11.453
rfingers 7.12502
rthumb 28.1053 -16.4611
lclavicle -1.56419e-014 -5.36719e-015
lhumerus -28.5582 10.2771 85.2791
lradius 6.93966
lwrist -40.9584
lhand -5.33118 26.6364
lfingers 7.12502
lthumb 20.4752 55.5768
rfemur 0 0 0
rtibia 0
rfoot 0 0
rtoes 0
lfemur -3.03029 -19.322 -17.5546
ltibia 16.2744
lfoot -16.79 15.8329
ltoes -14.8039
109
root 0.229399 17.4141 0.391078 4.1144 0.732474 -2.06738
lowerback -3.37885 -0.591725 -0.160213
upperback -3.12331 -0.78121 0.518596
thorax -1.29935 -0.382482 0.604163
lowerneck -15.4603 -14.2457 -17.4572
upperneck 30.5934 -21.4359 14.4416
head 17.5886 -9.39254 4.5409
rclavicle 6.79595e-015 -5.96354e-015
rhumerus -42.2812 21.8199 -100.18
rradius 32.5519
rwrist 5.37206
rhand 2.26862 11.6304
rfingers 7.12502
rthumb 27.7615 -16.3396
lclavicle 6.79595e-015 -5.96354e-015
lhumerus -28.8117 10.222 85.1043
lradius 7.0587
lwrist -40.0757
lhand -5.23435 27.0057
lfingers 7.12502
lthumb 20.5682 55.9361
rfemur 0 0 0
rtibia 0
rfoot 0 0
rtoes 0
lfemur -3.02825 -19.2861 -17.5107
ltibia 16.2508
lfoot -16.7417 15.8732
ltoes -15.1402
110
root 0.227252 17.4145 0.39012 4.18168 0.761672 -2.09675
lowerback -3.37471 -0.596184 -0.154147
upperback -3.11091 -0.787148 0.540935
thorax -1.28862 -0.385371 0.623478
lowerneck -15.8956 -14.1475 -17.2254
upperneck 30.5544 -21.2467 14.3959
head 17.5829 -9.26815 4.51153
rclavicle -6.23687e-015 6.36111e-015
rhumerus -42.3808 21.3421 -100.054
rradius 32.4506
rwrist 5.19202
rhand 1.87923 11.8374
rfingers 7.12502
rthumb 27.3891 -16.1921
lclavicle -6.23687e-015 6.36111e-015
lhumerus -29.0455 10.2316 84.9127
lradius 7.11925
lwrist -39.1674
lhand -5.29477 27.6547
lfingers 7.12502
lthumb 20.5102 56.5913
rfemur 0 0 0
rtibia 0
rfoot 0 0
rtoes 0
lfemur -3.09416 -19.2669 -17.4312
ltibia 16.211
lfoot -16.7384 16.0013
ltoes -15.913
111
root 0.225829 17.4155 0.389891 4.24796 0.762291 -2.05386
lowerback -3.3395 -0.574693 -0.201231
upperback -3.128 -0.757343 0.55115
thorax -1.3255 -0.369385 0.661498
lowerneck -16.2964 -14.0401 -17.0543
upperneck 30.517 -21.0324 14.3528
head 17.5748 -9.14244 4.50182
rclavicle 2.99419e-015 -3.77691e-015
rhumerus -42.4703 20.6891 -99.7852
rradius 32.3918
rwrist 4.84423
rhand 1.65832 11.9235
rfingers 7.12502
rthumb 27.1778 -16.1393
lclavicle 2.99419e-015 -3.77691e-015
lhumerus -29.317 10.2061 84.7701
lradius 7.21728
lwrist -38.2396
lhand -5.76328 27.5896
lfingers 7.12502
lthumb 20.0599 56.574
rfemur 0 0 0
rtibia 0
rfoot 0 0
rtoes 0
lfemur -3.14766 -19.2887 -17.4471
ltibia 16.1597
lfoot -16.7745 16.0842
ltoes -16.108
112
root 0.225815 17.415 0.392148 4.25874 0.763356 -1.9879
lowerback -3.25548 -0.553553 -0.247978
upperback -3.14532 -0.728094 0.556298
thorax -1.39002 -0.353637 0.69461
lowerneck -16.5576 -13.9289 -16.9268
upperneck 30.4251 -20.8202 14.3321
head 17.5162 -9.02994 4.51401
rclavicle -1.13804e-014 -3.97569e-016
rhumerus -42.5374 19.9047 -99.3955
rradius 32.3442
rwrist 4.30412
rhand 1.23839 12.0088
rfingers 7.12502
rthumb 26.776 -16.1161
lclavicle -1.13804e-014 -3.97569e-016
lhumerus -29.63 10.1846 84.6319
lradius 7.40351
lwrist -37.2711
lhand -6.29491 27.1624
lfingers 7.12502
lthumb 19.5488 56.1996
rfemur 0 0 0
rtibia 0
rfoot 0 0
rtoes 0
lfemur -3.13796 -19.2968 -17.5217
ltibia 16.1385
lfoot -16.8114 16.0125
ltoes -15.4069
113
root 0.225654 17.4144 0.393492 4.28076 0.734805 -1.92159
lowerback -3.20328 -0.520543 -0.293256
upperback -3.13564 -0.683426 0.536684
thorax -1.40957 -0.330626 0.701229
lowerneck -16.7882 -13.8247 -16.7739
upperneck 30.2323 -20.6465 14.3953
head 17.4188 -8.92431 4.54708
rclavicle -1.03741e-014 -2.78299e-015
rhumerus -42.5035 18.9875 -98.9373
rradius 32.3161
rwrist 3.86338
rhand 0.505189 12.0279
rfingers 7.12502
rthumb 26.0742 -16.2025
lclavicle -1.03741e-014 -2.78299e-015
lhumerus -29.8789 10.1386 84.4691
lradius 7.56696
lwrist -36.2289
lhand -6.76828 26.9261
lfingers 7.12502
lthumb 19.0937 56.0089
rfemur 0 0 0
rtibia 0
rfoot 0 0
rtoes 0
lfemur -3.13775 -19.2717 -17.5969
ltibia 16.1349
lfoot -16.7663 16.0237
ltoes -15.5978
114
root 0.224512 17.4148 0.394363 4.31006 0.723101 -1.98806
lowerback -3.14237 -0.472429 -0.184755
upperback -3.14767 -0.621448 0.519151
thorax -1.45817 -0.301679 0.624291
lowerneck -16.9444 -13.7268 -16.5746
upperneck 30.012 -20.4982 14.4405
head 17.2854 -8.83108 4.56041
rclavicle -1.10077e-014 7.95139e-016
rhumerus -42.4291 17.938 -98.4231
rradius 32.2678
rwrist 3.50264
rhand -0.0451288 12.2504
rfingers 7.12502
rthumb 25.5471 -16.0566
lclavicle -1.10077e-014 7.95139e-016
lhumerus -30.1323 10.0246 84.2779
lradius 7.67389
lwrist -35.1338
lhand -7.1114 26.4304
lfingers 7.12502
lthumb 18.7637 55.5454
rfemur 0 0 0
rtibia 0
rfoot 0 0
rtoes 0
lfemur -3.18338 -19.2419 -17.5089
ltibia 16.154
lfoot -16.6602 16.1788
ltoes -16.704
115
root 0.224044 17.4156 0.395509 4.34323 0.728565 -2.06256
lowerback -3.07416 -0.430441 -0.0874313
upperback -3.16845 -0.566964 0.528862
thorax -1.51916 -0.275994 0.581397
lowerneck -17.0793 -13.6416 -16.41
upperneck 29.7791 -20.3618 14.4883
head 17.1502 -8.74765 4.57711
rclavicle -3.38058e-014 7.95139e-016
rhumerus -42.3223 16.8874 -97.8659
rradius 32.1982
rwrist 3.23789
rhand -0.234154 12.3756
rfingers 7.12502
rthumb 25.3661 -15.9572
lclavicle -3.38058e-014 7.95139e-016
lhumerus -30.5154 9.91967 84.1073
lradius 7.99447
lwrist -34.1218
lhand -7.22552 25.8441
lfingers 7.12502
lthumb 18.6539 54.9697
rfemur 0 0 0
rtibia 0
rfoot 0 0
rtoes 0
lfemur -3.26212 -19.2388 -17.4078
ltibia 16.2142
lfoot -16.6825 16.1927
ltoes -16.9603
116
root 0.224002 17.4164 0.39469 4.38611 0.741941 -2.06141
lowerback -3.01285 -0.423953 -0.089986
upperback -3.17483 -0.55804 0.53856
thorax -1.56 -0.271284 0.593462
lowerneck -17.2751 -13.4977 -16.1139
upperneck 29.5592 -20.1387 14.4601
head 16.9854 -8.61975 4.56028
rclavicle -5.23052e-015 -4.37326e-015
rhumerus -42.1135 15.7315 -97.1937
rradius 32.0743
rwrist 3.25572
rhand -0.366441 12.4062
rfingers 7.12502
rthumb 25.2393 -15.9446
lclavicle -5.23052e-015 -4.37326e-015
lhumerus -31.0262 9.85701 83.8398
lradius 8.67204
lwrist -33.2607
lhand -6.97771 25.5491
lfingers 7.12502
lthumb 18.8923 54.6517
rfemur 0 0 0
rtibia 0
rfoot 0 0
rtoes 0
lfemur -3.37274 -19.2646 -17.3888
ltibia 16.3092
lfoot -16.7818 16.1521
ltoes -16.7054
